<svg width="30" height="33" viewBox="0 0 30 33" fill="none" xmlns="http://www.w3.org/2000/svg">
<path fill-rule="evenodd" clip-rule="evenodd" d="M0.5 19.4016C0.5 19.0353 0.841677 18.7383 1.26316 18.7383H8.13158C8.25572 18.7383 8.378 18.7647 8.48779 18.815L15 21.8019L21.5122 18.815C21.622 18.7647 21.7443 18.7383 21.8684 18.7383H28.7368C29.1583 18.7383 29.5 19.0353 29.5 19.4016V31.8368C29.5 32.2031 29.1583 32.5 28.7368 32.5H1.26316C0.841677 32.5 0.5 32.2031 0.5 31.8368V19.4016ZM2.02632 20.0648V31.1736H27.9737V20.0648H22.0575L15.3562 23.1383C15.1333 23.2406 14.8667 23.2406 14.6438 23.1383L7.94255 20.0648H2.02632Z" fill="black"/>
<path fill-rule="evenodd" clip-rule="evenodd" d="M14.8091 15.7539C19.2346 15.7539 22.8222 12.6361 22.8222 8.79016C22.8222 4.94419 19.2346 1.82642 14.8091 1.82642C10.3835 1.82642 6.79591 4.94419 6.79591 8.79016C6.79591 12.6361 10.3835 15.7539 14.8091 15.7539ZM14.8091 17.0803C20.0776 17.0803 24.3485 13.3687 24.3485 8.79016C24.3485 4.21163 20.0776 0.5 14.8091 0.5C9.54056 0.5 5.26959 4.21163 5.26959 8.79016C5.26959 13.3687 9.54056 17.0803 14.8091 17.0803Z" fill="black"/>
<path fill-rule="evenodd" clip-rule="evenodd" d="M3.9342 25.7021C3.9342 25.3358 4.27588 25.0389 4.69736 25.0389H10.0395C10.4609 25.0389 10.8026 25.3358 10.8026 25.7021C10.8026 26.0684 10.4609 26.3653 10.0395 26.3653H4.69736C4.27588 26.3653 3.9342 26.0684 3.9342 25.7021Z" fill="black"/>
</svg>
