<svg width="32" height="31" viewBox="0 0 32 31" fill="none" xmlns="http://www.w3.org/2000/svg">
<path fill-rule="evenodd" clip-rule="evenodd" d="M9.67344 29.3356C10.2849 29.3356 10.7806 28.6836 10.7806 27.8792C10.7806 27.0749 10.2849 26.4229 9.67344 26.4229C9.06199 26.4229 8.5663 27.0749 8.5663 27.8792C8.5663 28.6836 9.06199 29.3356 9.67344 29.3356ZM9.67344 31C10.9837 31 12.0459 29.6028 12.0459 27.8792C12.0459 26.1557 10.9837 24.7584 9.67344 24.7584C8.36318 24.7584 7.30099 26.1557 7.30099 27.8792C7.30099 29.6028 8.36318 31 9.67344 31Z" fill="black"/>
<path fill-rule="evenodd" clip-rule="evenodd" d="M25.1734 29.3356C25.7849 29.3356 26.2806 28.6836 26.2806 27.8792C26.2806 27.0749 25.7849 26.4229 25.1734 26.4229C24.562 26.4229 24.0663 27.0749 24.0663 27.8792C24.0663 28.6836 24.562 29.3356 25.1734 29.3356ZM25.1734 31C26.4837 31 27.5459 29.6028 27.5459 27.8792C27.5459 26.1557 26.4837 24.7584 25.1734 24.7584C23.8632 24.7584 22.801 26.1557 22.801 27.8792C22.801 29.6028 23.8632 31 25.1734 31Z" fill="black"/>
<path fill-rule="evenodd" clip-rule="evenodd" d="M0.5 0.832215C0.5 0.372595 0.783248 0 1.13265 0H3.66326C3.94127 0 4.1867 0.238729 4.26815 0.588374L5.29435 4.99329H30.8673C31.0757 4.99329 31.2707 5.12821 31.3887 5.35404C31.5067 5.57987 31.5326 5.86766 31.458 6.12354L27.0295 21.3115C26.9356 21.6332 26.7008 21.8456 26.4388 21.8456H8.78701L7.93266 24.5503H25.0153C25.3647 24.5503 25.648 24.9229 25.648 25.3825C25.648 25.8422 25.3647 26.2148 25.0153 26.2148H6.98469C6.77327 26.2148 6.57583 26.0758 6.45847 25.8445C6.34111 25.6132 6.31934 25.32 6.40047 25.0632L7.69317 20.9708L3.19545 1.66443H1.13265C0.783248 1.66443 0.5 1.29183 0.5 0.832215ZM8.83261 20.1812H26.0038L29.9471 6.65772H5.6821L8.83261 20.1812Z" fill="black"/>
<path fill-rule="evenodd" clip-rule="evenodd" d="M18.5307 10.8188C18.5307 10.3592 18.2474 9.98657 17.898 9.98657H8.40822C8.05882 9.98657 7.77557 10.3592 7.77557 10.8188C7.77557 11.2784 8.05882 11.651 8.40822 11.651H17.898C18.2474 11.651 18.5307 11.2784 18.5307 10.8188ZM18.5307 15.604C18.5307 15.1444 18.2474 14.7718 17.898 14.7718H12.046C11.6966 14.7718 11.4133 15.1444 11.4133 15.604C11.4133 16.0636 11.6966 16.4362 12.046 16.4362H17.898C18.2474 16.4362 18.5307 16.0636 18.5307 15.604Z" fill="black"/>
</svg>
