<svg width="24" height="24" viewBox="0 0 24 24" fill="none" xmlns="http://www.w3.org/2000/svg">
<path d="M11.5565 2.07294C14.6322 2.07294 14.9964 2.08643 16.206 2.14038C17.3302 2.18985 17.9372 2.37871 18.3419 2.53609C18.877 2.74293 19.2637 2.99474 19.6639 3.39494C20.0686 3.79963 20.3159 4.18184 20.5228 4.71694C20.6802 5.12163 20.869 5.73317 20.9185 6.85283C20.9724 8.06691 20.9859 8.43114 20.9859 11.5023C20.9859 14.578 20.9724 14.9422 20.9185 16.1518C20.869 17.276 20.6802 17.883 20.5228 18.2877C20.3159 18.8228 20.0641 19.2095 19.6639 19.6097C19.2592 20.0144 18.877 20.2617 18.3419 20.4686C17.9372 20.6259 17.3257 20.8148 16.206 20.8643C14.9919 20.9182 14.6277 20.9317 11.5565 20.9317C8.48086 20.9317 8.11664 20.9182 6.90705 20.8643C5.7829 20.8148 5.17586 20.6259 4.77116 20.4686C4.23606 20.2617 3.84936 20.0099 3.44916 19.6097C3.04446 19.205 2.79715 18.8228 2.59031 18.2877C2.43292 17.883 2.24407 17.2715 2.19461 16.1518C2.14065 14.9377 2.12716 14.5735 2.12716 11.5023C2.12716 8.42664 2.14065 8.06242 2.19461 6.85283C2.24407 5.72868 2.43292 5.12163 2.59031 4.71694C2.79715 4.18184 3.04896 3.79514 3.44916 3.39494C3.85385 2.99024 4.23606 2.74293 4.77116 2.53609C5.17586 2.37871 5.78739 2.18985 6.90705 2.14038C8.11664 2.08643 8.48086 2.07294 11.5565 2.07294ZM11.5565 0C8.4314 0 8.04019 0.0134898 6.81262 0.0674491C5.58954 0.121408 4.74868 0.319259 4.02023 0.602545C3.2603 0.899321 2.61729 1.29053 1.97877 1.93354C1.33575 2.57206 0.944548 3.21507 0.647772 3.9705C0.364486 4.70345 0.166635 5.53982 0.112676 6.7629C0.0587169 7.99497 0.0452271 8.38617 0.0452271 11.5113C0.0452271 14.6365 0.0587169 15.0277 0.112676 16.2552C0.166635 17.4783 0.364486 18.3192 0.647772 19.0476C0.944548 19.8076 1.33575 20.4506 1.97877 21.0891C2.61729 21.7276 3.2603 22.1233 4.01573 22.4156C4.74868 22.6989 5.58505 22.8967 6.80812 22.9507C8.0357 23.0046 8.4269 23.0181 11.552 23.0181C14.6772 23.0181 15.0684 23.0046 16.296 22.9507C17.519 22.8967 18.3599 22.6989 19.0884 22.4156C19.8438 22.1233 20.4868 21.7276 21.1253 21.0891C21.7638 20.4506 22.1595 19.8076 22.4518 19.0521C22.7351 18.3192 22.933 17.4828 22.9869 16.2597C23.0409 15.0322 23.0544 14.641 23.0544 11.5158C23.0544 8.39067 23.0409 7.99946 22.9869 6.77189C22.933 5.54881 22.7351 4.70795 22.4518 3.9795C22.1685 3.21507 21.7773 2.57206 21.1343 1.93354C20.4958 1.29502 19.8528 0.899321 19.0973 0.607042C18.3644 0.323756 17.528 0.125905 16.305 0.0719457C15.0729 0.0134898 14.6817 0 11.5565 0Z" fill="black"/>
<path d="M11.5565 5.59863C8.292 5.59863 5.64349 8.24713 5.64349 11.5117C5.64349 14.7762 8.292 17.4247 11.5565 17.4247C14.8211 17.4247 17.4696 14.7762 17.4696 11.5117C17.4696 8.24713 14.8211 5.59863 11.5565 5.59863ZM11.5565 15.3473C9.43863 15.3473 7.72093 13.6296 7.72093 11.5117C7.72093 9.39377 9.43863 7.67606 11.5565 7.67606C13.6744 7.67606 15.3921 9.39377 15.3921 11.5117C15.3921 13.6296 13.6744 15.3473 11.5565 15.3473Z" fill="black"/>
<path d="M19.0839 5.36483C19.0839 6.12926 18.4633 6.74529 17.7034 6.74529C16.939 6.74529 16.3229 6.12476 16.3229 5.36483C16.3229 4.60041 16.9435 3.98438 17.7034 3.98438C18.4633 3.98438 19.0839 4.60491 19.0839 5.36483Z" fill="black"/>
</svg>
