<svg width="24" height="19" viewBox="0 0 24 19" fill="none" xmlns="http://www.w3.org/2000/svg">
<path d="M7.26533 18.8623C15.951 18.8623 20.703 11.6646 20.703 5.42467C20.703 5.22233 20.6985 5.01548 20.6895 4.81314C21.6139 4.14462 22.4117 3.31656 23.0453 2.36788C22.1843 2.75092 21.2703 3.00108 20.3343 3.10982C21.3198 2.51907 22.0577 1.59103 22.4112 0.497743C21.4841 1.04721 20.4702 1.43481 19.4129 1.64393C18.7006 0.887011 17.7587 0.385843 16.7329 0.217907C15.7072 0.0499709 14.6547 0.224621 13.7381 0.714855C12.8216 1.20509 12.0921 1.9836 11.6624 2.93003C11.2326 3.87646 11.1267 4.93809 11.3608 5.95078C9.4835 5.85657 7.64691 5.36889 5.97014 4.51935C4.29337 3.66981 2.81384 2.47737 1.62748 1.01935C1.02451 2.05894 0.840001 3.28912 1.11145 4.45986C1.3829 5.63061 2.08994 6.65407 3.08888 7.32224C2.33894 7.29843 1.60543 7.09652 0.948945 6.73319V6.79164C0.948273 7.88262 1.32543 8.94016 2.01632 9.7845C2.7072 10.6288 3.66916 11.2079 4.73868 11.4231C4.04398 11.6132 3.31486 11.6409 2.60774 11.5041C2.90954 12.4423 3.49673 13.2629 4.28737 13.8514C5.078 14.4399 6.03262 14.7668 7.01801 14.7866C5.34511 16.1007 3.27859 16.8135 1.15129 16.8101C0.774033 16.8095 0.397144 16.7864 0.022644 16.7408C2.18375 18.1273 4.69771 18.8637 7.26533 18.8623Z" fill="black"/>
</svg>
