<svg width="33" height="33" viewBox="0 0 33 33" fill="none" xmlns="http://www.w3.org/2000/svg">
<path fill-rule="evenodd" clip-rule="evenodd" d="M14.6153 18.3846C17.5368 21.3061 22.2735 21.3061 25.195 18.3846C28.1165 15.4631 28.1165 10.7265 25.195 7.80498C22.2735 4.8835 17.5368 4.8835 14.6153 7.80498C11.6939 10.7265 11.6939 15.4631 14.6153 18.3846ZM13.6078 19.3922C17.0857 22.8702 22.7246 22.8702 26.2026 19.3922C29.6805 15.9142 29.6805 10.2754 26.2026 6.7974C22.7246 3.31944 17.0857 3.31944 13.6078 6.7974C10.1298 10.2754 10.1298 15.9142 13.6078 19.3922Z" fill="black"/>
<path fill-rule="evenodd" clip-rule="evenodd" d="M14.3539 18.6461C14.6321 18.9244 14.6321 19.3755 14.3539 19.6537L2.01135 31.9962C1.73312 32.2745 1.28201 32.2745 1.00377 31.9962C0.725535 31.718 0.725536 31.2669 1.00377 30.9887L13.3463 18.6461C13.6245 18.3679 14.0757 18.3679 14.3539 18.6461Z" fill="black"/>
<path fill-rule="evenodd" clip-rule="evenodd" d="M20.0317 8.33717C18.9491 8.33717 17.5355 8.81297 16.6169 9.73155C16.3387 10.0098 15.8875 10.0098 15.6093 9.73155C15.3311 9.45331 15.3311 9.0022 15.6093 8.72397C16.8281 7.50514 18.6206 6.91223 20.0317 6.91223C20.4252 6.91223 20.7442 7.23121 20.7442 7.6247C20.7442 8.01819 20.4252 8.33717 20.0317 8.33717Z" fill="black"/>
</svg>
